---------- Sin.City.2005.720p.BRRip.x264.AAC.mp4-Zen_Bud ----------

Format                           : MPEG-4
File size                        : 1.37 GiB
Duration                         : 2h 3mn
Overall bit rate                 : 1 584 Kbps


Video

Format                           : AVC
Format profile                   : Main@L3.1
Format settings, CABAC           : Yes
Format settings, ReFrames        : 4 frames
Duration                         : 2h 3mn
Bit rate                         : 1 387 Kbps
Width                            : 1 280 pixels
Height                           : 690 pixels
Display aspect ratio             : 1.855
Stream size                      : 1.20 GiB (88%)
Writing library                  : x264 core 115


Audio

Format                           : AAC
Duration                         : 2h 3mn
Bit rate                         : 192 Kbps
Channel(s)                       : 2 channels
Channel positions                : Front: L R
Sampling rate                    : 48.0 KHz
Stream size                      : 170 MiB (12%)
Language                         : English


Subtitel                         : Svenska [.srt ]


====================================================================

A film that explores the dark and miserable town, Basin City, and tells the story of three different people, all caught up in violent corruption. 

====================================================================